<svg xmlns="http://www.w3.org/2000/svg" viewBox="0 0 260 260" width="260" height="260"><g fill-rule="evenodd"><g id="i-like-food" fill="#555" opacity="0.5"><path d="M 24.37 16 c 0.2 0.65 0.39 1.32 0.54 2 H 21.17 l 1.17 2.34 l 0.45 0.9 l -0.24 0.11 V 28 a 5 5 0 0 1 -2.23 8.94 l -0.02 0.06 a 8 8 0 0 1 -7.75 6 h -20 a 8 8 0 0 1 -7.74 -6 l -0.02 -0.06 A 5 5 0 0 1 -17.45 28 v -6.76 l -0.79 -1.58 l -0.44 -0.9 l 0.9 -0.44 l 0.63 -0.32 H -20 a 23.01 23.01 0 0 1 44.37 -2 Z m -36.82 2 a 1 1 0 0 0 -0.44 0.1 l -3.1 1.56 l 0.89 1.79 l 1.31 -0.66 a 3 3 0 0 1 2.69 0 l 2.2 1.1 a 1 1 0 0 0 0.9 0 l 2.21 -1.1 a 3 3 0 0 1 2.69 0 l 2.2 1.1 a 1 1 0 0 0 0.9 0 l 2.21 -1.1 a 3 3 0 0 1 2.69 0 l 2.2 1.1 a 1 1 0 0 0 0.86 0.02 l 2.88 -1.27 a 3 3 0 0 1 2.43 0 l 2.88 1.27 a 1 1 0 0 0 0.85 -0.02 l 3.1 -1.55 l -0.89 -1.79 l -1.42 0.71 a 3 3 0 0 1 -2.56 0.06 l -2.77 -1.23 a 1 1 0 0 0 -0.4 -0.09 h -0.01 a 1 1 0 0 0 -0.4 0.09 l -2.78 1.23 a 3 3 0 0 1 -2.56 -0.06 l -2.3 -1.15 a 1 1 0 0 0 -0.45 -0.11 h -0.01 a 1 1 0 0 0 -0.44 0.1 L 0.9 19.22 a 3 3 0 0 1 -2.69 0 l -2.2 -1.1 a 1 1 0 0 0 -0.45 -0.11 h -0.01 a 1 1 0 0 0 -0.44 0.1 l -2.21 1.11 a 3 3 0 0 1 -2.69 0 l -2.2 -1.1 a 1 1 0 0 0 -0.45 -0.11 h -0.01 Z m 0 -2 h -4.9 a 21.01 21.01 0 0 1 39.61 0 h -2.09 l -0.06 -0.13 l -0.26 0.13 h -32.31 Z m 30.35 7.68 l 1.36 -0.68 h 1.3 v 2 h -36 v -1.15 l 0.34 -0.17 l 1.36 -0.68 h 2.59 l 1.36 0.68 a 3 3 0 0 0 2.69 0 l 1.36 -0.68 h 2.59 l 1.36 0.68 a 3 3 0 0 0 2.69 0 L 2.26 23 h 2.59 l 1.36 0.68 a 3 3 0 0 0 2.56 0.06 l 1.67 -0.74 h 3.23 l 1.67 0.74 a 3 3 0 0 0 2.56 -0.06 Z M -13.82 27 l 16.37 4.91 L 18.93 27 h -32.75 Z m -0.63 2 h 0.34 l 16.66 5 l 16.67 -5 h 0.33 a 3 3 0 1 1 0 6 h -34 a 3 3 0 1 1 0 -6 Z m 1.35 8 a 6 6 0 0 0 5.65 4 h 20 a 6 6 0 0 0 5.66 -4 H -13.1 Z" /><path id="path6_fill-copy" d="M 284.37 16 c 0.2 0.65 0.39 1.32 0.54 2 H 281.17 l 1.17 2.34 l 0.45 0.9 l -0.24 0.11 V 28 a 5 5 0 0 1 -2.23 8.94 l -0.02 0.06 a 8 8 0 0 1 -7.75 6 h -20 a 8 8 0 0 1 -7.74 -6 l -0.02 -0.06 a 5 5 0 0 1 -2.24 -8.94 v -6.76 l -0.79 -1.58 l -0.44 -0.9 l 0.9 -0.44 l 0.63 -0.32 H 240 a 23.01 23.01 0 0 1 44.37 -2 Z m -36.82 2 a 1 1 0 0 0 -0.44 0.1 l -3.1 1.56 l 0.89 1.79 l 1.31 -0.66 a 3 3 0 0 1 2.69 0 l 2.2 1.1 a 1 1 0 0 0 0.9 0 l 2.21 -1.1 a 3 3 0 0 1 2.69 0 l 2.2 1.1 a 1 1 0 0 0 0.9 0 l 2.21 -1.1 a 3 3 0 0 1 2.69 0 l 2.2 1.1 a 1 1 0 0 0 0.86 0.02 l 2.88 -1.27 a 3 3 0 0 1 2.43 0 l 2.88 1.27 a 1 1 0 0 0 0.85 -0.02 l 3.1 -1.55 l -0.89 -1.79 l -1.42 0.71 a 3 3 0 0 1 -2.56 0.06 l -2.77 -1.23 a 1 1 0 0 0 -0.4 -0.09 h -0.01 a 1 1 0 0 0 -0.4 0.09 l -2.78 1.23 a 3 3 0 0 1 -2.56 -0.06 l -2.3 -1.15 a 1 1 0 0 0 -0.45 -0.11 h -0.01 a 1 1 0 0 0 -0.44 0.1 l -2.21 1.11 a 3 3 0 0 1 -2.69 0 l -2.2 -1.1 a 1 1 0 0 0 -0.45 -0.11 h -0.01 a 1 1 0 0 0 -0.44 0.1 l -2.21 1.11 a 3 3 0 0 1 -2.69 0 l -2.2 -1.1 a 1 1 0 0 0 -0.45 -0.11 h -0.01 Z m 0 -2 h -4.9 a 21.01 21.01 0 0 1 39.61 0 h -2.09 l -0.06 -0.13 l -0.26 0.13 h -32.31 Z m 30.35 7.68 l 1.36 -0.68 h 1.3 v 2 h -36 v -1.15 l 0.34 -0.17 l 1.36 -0.68 h 2.59 l 1.36 0.68 a 3 3 0 0 0 2.69 0 l 1.36 -0.68 h 2.59 l 1.36 0.68 a 3 3 0 0 0 2.69 0 l 1.36 -0.68 h 2.59 l 1.36 0.68 a 3 3 0 0 0 2.56 0.06 l 1.67 -0.74 h 3.23 l 1.67 0.74 a 3 3 0 0 0 2.56 -0.06 Z M 246.18 27 l 16.37 4.91 L 278.93 27 h -32.75 Z m -0.63 2 h 0.34 l 16.66 5 l 16.67 -5 h 0.33 a 3 3 0 1 1 0 6 h -34 a 3 3 0 1 1 0 -6 Z m 1.35 8 a 6 6 0 0 0 5.65 4 h 20 a 6 6 0 0 0 5.66 -4 H 246.9 Z" /><path d="M 159.5 21.02 A 9 9 0 0 0 151 15 h -42 a 9 9 0 0 0 -8.5 6.02 a 6 6 0 0 0 0.02 11.96 A 8.99 8.99 0 0 0 109 45 h 42 a 9 9 0 0 0 8.48 -12.02 a 6 6 0 0 0 0.02 -11.96 Z M 151 17 h -42 a 7 7 0 0 0 -6.33 4 h 54.66 a 7 7 0 0 0 -6.33 -4 Z m -9.34 26 a 8.98 8.98 0 0 0 3.34 -7 h -2 a 7 7 0 0 1 -7 7 h -4.34 a 8.98 8.98 0 0 0 3.34 -7 h -2 a 7 7 0 0 1 -7 7 h -4.34 a 8.98 8.98 0 0 0 3.34 -7 h -2 a 7 7 0 0 1 -7 7 h -7 a 7 7 0 1 1 0 -14 h 42 a 7 7 0 1 1 0 14 h -9.34 Z M 109 27 a 9 9 0 0 0 -7.48 4 H 101 a 4 4 0 1 1 0 -8 h 58 a 4 4 0 0 1 0 8 h -0.52 a 9 9 0 0 0 -7.48 -4 h -42 Z" /><path d="M 39 115 a 8 8 0 1 0 0 -16 a 8 8 0 0 0 0 16 Z m 6 -8 a 6 6 0 1 1 -12 0 a 6 6 0 0 1 12 0 Z m -3 -29 v -2 h 8 v -6 H 40 a 4 4 0 0 0 -4 4 v 10 H 22 l -1.33 4 l -0.67 2 h 2.19 L 26 130 h 26 l 3.81 -40 H 58 l -0.67 -2 L 56 84 H 42 v -6 Z m -4 -4 v 10 h 2 V 74 h 8 v -2 h -8 a 2 2 0 0 0 -2 2 Z m 2 12 h 14.56 l 0.67 2 H 22.77 l 0.67 -2 H 40 Z m 13.8 4 H 24.2 l 3.62 38 h 22.36 l 3.62 -38 Z" /><path d="M 129 92 h -6 v 4 h -6 v 4 h -6 v 14 h -3 l 0.24 2 l 3.76 32 h 36 l 3.76 -32 l 0.24 -2 h -3 v -14 h -6 v -4 h -6 v -4 h -8 Z m 18 22 v -12 h -4 v 4 h 3 v 8 h 1 Z m -3 0 v -6 h -4 v 6 h 4 Z m -6 6 v -16 h -4 v 19.17 c 1.6 -0.7 2.97 -1.8 4 -3.17 Z m -6 3.8 V 100 h -4 v 23.8 a 10.04 10.04 0 0 0 4 0 Z m -6 -0.63 V 104 h -4 v 16 a 10.04 10.04 0 0 0 4 3.17 Z m -6 -9.17 v -6 h -4 v 6 h 4 Z m -6 0 v -8 h 3 v -4 h -4 v 12 h 1 Z m 27 -12 v -4 h -4 v 4 h 3 v 4 h 1 v -4 Z m -6 0 v -8 h -4 v 4 h 3 v 4 h 1 Z m -6 -4 v -4 h -4 v 8 h 1 v -4 h 3 Z m -6 4 v -4 h -4 v 8 h 1 v -4 h 3 Z m 7 24 a 12 12 0 0 0 11.83 -10 h 7.92 l -3.53 30 h -32.44 l -3.53 -30 h 7.92 A 12 12 0 0 0 130 126 Z" /><path d="M 212 86 v 2 h -4 v -2 h 4 Z m 4 0 h -2 v 2 h 2 v -2 Z m -20 0 v 0.1 a 5 5 0 0 0 -0.56 9.65 l 0.06 0.25 l 1.12 4.48 a 2 2 0 0 0 1.94 1.52 h 0.01 l 7.02 24.55 a 2 2 0 0 0 1.92 1.45 h 4.98 a 2 2 0 0 0 1.92 -1.45 l 7.02 -24.55 a 2 2 0 0 0 1.95 -1.52 L 224.5 96 l 0.06 -0.25 a 5 5 0 0 0 -0.56 -9.65 V 86 a 14 14 0 0 0 -28 0 Z m 4 0 h 6 v 2 h -9 a 3 3 0 1 0 0 6 H 223 a 3 3 0 1 0 0 -6 H 220 v -2 h 2 a 12 12 0 1 0 -24 0 h 2 Z m -1.44 14 l -1 -4 h 24.88 l -1 4 h -22.88 Z m 8.95 26 l -6.86 -24 h 18.7 l -6.86 24 h -4.98 Z M 150 242 a 22 22 0 1 0 0 -44 a 22 22 0 0 0 0 44 Z m 24 -22 a 24 24 0 1 1 -48 0 a 24 24 0 0 1 48 0 Z m -28.38 17.73 l 2.04 -0.87 a 6 6 0 0 1 4.68 0 l 2.04 0.87 a 2 2 0 0 0 2.5 -0.82 l 1.14 -1.9 a 6 6 0 0 1 3.79 -2.75 l 2.15 -0.5 a 2 2 0 0 0 1.54 -2.12 l -0.19 -2.2 a 6 6 0 0 1 1.45 -4.46 l 1.45 -1.67 a 2 2 0 0 0 0 -2.62 l -1.45 -1.67 a 6 6 0 0 1 -1.45 -4.46 l 0.2 -2.2 a 2 2 0 0 0 -1.55 -2.13 l -2.15 -0.5 a 6 6 0 0 1 -3.8 -2.75 l -1.13 -1.9 a 2 2 0 0 0 -2.5 -0.8 l -2.04 0.86 a 6 6 0 0 1 -4.68 0 l -2.04 -0.87 a 2 2 0 0 0 -2.5 0.82 l -1.14 1.9 a 6 6 0 0 1 -3.79 2.75 l -2.15 0.5 a 2 2 0 0 0 -1.54 2.12 l 0.19 2.2 a 6 6 0 0 1 -1.45 4.46 l -1.45 1.67 a 2 2 0 0 0 0 2.62 l 1.45 1.67 a 6 6 0 0 1 1.45 4.46 l -0.2 2.2 a 2 2 0 0 0 1.55 2.13 l 2.15 0.5 a 6 6 0 0 1 3.8 2.75 l 1.13 1.9 a 2 2 0 0 0 2.5 0.8 Z m 2.82 0.97 a 4 4 0 0 1 3.12 0 l 2.04 0.87 a 4 4 0 0 0 4.99 -1.62 l 1.14 -1.9 a 4 4 0 0 1 2.53 -1.84 l 2.15 -0.5 a 4 4 0 0 0 3.09 -4.24 l -0.2 -2.2 a 4 4 0 0 1 0.97 -2.98 l 1.45 -1.67 a 4 4 0 0 0 0 -5.24 l -1.45 -1.67 a 4 4 0 0 1 -0.97 -2.97 l 0.2 -2.2 a 4 4 0 0 0 -3.09 -4.25 l -2.15 -0.5 a 4 4 0 0 1 -2.53 -1.84 l -1.14 -1.9 a 4 4 0 0 0 -5 -1.62 l -2.03 0.87 a 4 4 0 0 1 -3.12 0 l -2.04 -0.87 a 4 4 0 0 0 -4.99 1.62 l -1.14 1.9 a 4 4 0 0 1 -2.53 1.84 l -2.15 0.5 a 4 4 0 0 0 -3.09 4.24 l 0.2 2.2 a 4 4 0 0 1 -0.97 2.98 l -1.45 1.67 a 4 4 0 0 0 0 5.24 l 1.45 1.67 a 4 4 0 0 1 0.97 2.97 l -0.2 2.2 a 4 4 0 0 0 3.09 4.25 l 2.15 0.5 a 4 4 0 0 1 2.53 1.84 l 1.14 1.9 a 4 4 0 0 0 5 1.62 l 2.03 -0.87 Z M 152 207 a 1 1 0 1 1 2 0 a 1 1 0 0 1 -2 0 Z m 6 2 a 1 1 0 1 1 2 0 a 1 1 0 0 1 -2 0 Z m -11 1 a 1 1 0 1 1 2 0 a 1 1 0 0 1 -2 0 Z m -6 0 a 1 1 0 1 1 2 0 a 1 1 0 0 1 -2 0 Z m 3 -5 a 1 1 0 1 1 2 0 a 1 1 0 0 1 -2 0 Z m -8 8 a 1 1 0 1 1 2 0 a 1 1 0 0 1 -2 0 Z m 3 6 a 1 1 0 1 1 2 0 a 1 1 0 0 1 -2 0 Z m 0 6 a 1 1 0 1 1 2 0 a 1 1 0 0 1 -2 0 Z m 4 7 a 1 1 0 1 1 2 0 a 1 1 0 0 1 -2 0 Z m 5 -2 a 1 1 0 1 1 2 0 a 1 1 0 0 1 -2 0 Z m 5 4 a 1 1 0 1 1 2 0 a 1 1 0 0 1 -2 0 Z m 4 -6 a 1 1 0 1 1 2 0 a 1 1 0 0 1 -2 0 Z m 6 -4 a 1 1 0 1 1 2 0 a 1 1 0 0 1 -2 0 Z m -4 -3 a 1 1 0 1 1 2 0 a 1 1 0 0 1 -2 0 Z m 4 -3 a 1 1 0 1 1 2 0 a 1 1 0 0 1 -2 0 Z m -5 -4 a 1 1 0 1 1 2 0 a 1 1 0 0 1 -2 0 Z m -24 6 a 1 1 0 1 1 2 0 a 1 1 0 0 1 -2 0 Z m 16 5 a 5 5 0 1 0 0 -10 a 5 5 0 0 0 0 10 Z m 7 -5 a 7 7 0 1 1 -14 0 a 7 7 0 0 1 14 0 Z m 86 -29 a 1 1 0 0 0 0 2 h 2 a 1 1 0 0 0 0 -2 h -2 Z m 19 9 a 1 1 0 0 1 1 -1 h 2 a 1 1 0 0 1 0 2 h -2 a 1 1 0 0 1 -1 -1 Z m -14 5 a 1 1 0 0 0 0 2 h 2 a 1 1 0 0 0 0 -2 h -2 Z m -25 1 a 1 1 0 0 0 0 2 h 2 a 1 1 0 0 0 0 -2 h -2 Z m 5 4 a 1 1 0 0 0 0 2 h 2 a 1 1 0 0 0 0 -2 h -2 Z m 9 0 a 1 1 0 0 1 1 -1 h 2 a 1 1 0 0 1 0 2 h -2 a 1 1 0 0 1 -1 -1 Z m 15 1 a 1 1 0 0 1 1 -1 h 2 a 1 1 0 0 1 0 2 h -2 a 1 1 0 0 1 -1 -1 Z m 12 -2 a 1 1 0 0 0 0 2 h 2 a 1 1 0 0 0 0 -2 h -2 Z m -11 -14 a 1 1 0 0 1 1 -1 h 2 a 1 1 0 0 1 0 2 h -2 a 1 1 0 0 1 -1 -1 Z m -19 0 a 1 1 0 0 0 0 2 h 2 a 1 1 0 0 0 0 -2 h -2 Z m 6 5 a 1 1 0 0 1 1 -1 h 2 a 1 1 0 0 1 0 2 h -2 a 1 1 0 0 1 -1 -1 Z m -25 15 c 0 -0.47 0.01 -0.94 0.03 -1.4 a 5 5 0 0 1 -1.7 -8 a 3.99 3.99 0 0 1 1.88 -5.18 a 5 5 0 0 1 3.4 -6.22 a 3 3 0 0 1 1.46 -1.05 a 5 5 0 0 1 7.76 -3.27 A 30.86 30.86 0 0 1 246 184 c 6.79 0 13.06 2.18 18.17 5.88 a 5 5 0 0 1 7.76 3.27 a 3 3 0 0 1 1.47 1.05 a 5 5 0 0 1 3.4 6.22 a 4 4 0 0 1 1.87 5.18 a 4.98 4.98 0 0 1 -1.7 8 c 0.02 0.46 0.03 0.93 0.03 1.4 v 1 h -62 v -1 Z m 0.83 -7.17 a 30.9 30.9 0 0 0 -0.62 3.57 a 3 3 0 0 1 -0.61 -4.2 c 0.37 0.28 0.78 0.49 1.23 0.63 Z m 1.49 -4.61 c -0.36 0.87 -0.68 1.76 -0.96 2.68 a 2 2 0 0 1 -0.21 -3.71 c 0.33 0.4 0.73 0.75 1.17 1.03 Z m 2.32 -4.54 c -0.54 0.86 -1.03 1.76 -1.49 2.68 a 3 3 0 0 1 -0.07 -4.67 a 3 3 0 0 0 1.56 1.99 Z m 1.14 -1.7 c 0.35 -0.5 0.72 -0.98 1.1 -1.46 a 1 1 0 1 0 -1.1 1.45 Z m 5.34 -5.77 c -1.03 0.86 -2 1.79 -2.9 2.77 a 3 3 0 0 0 -1.11 -0.77 a 3 3 0 0 1 4 -2 Z m 42.66 2.77 c -0.9 -0.98 -1.87 -1.9 -2.9 -2.77 a 3 3 0 0 1 4.01 2 a 3 3 0 0 0 -1.1 0.77 Z m 1.34 1.54 c 0.38 0.48 0.75 0.96 1.1 1.45 a 1 1 0 1 0 -1.1 -1.45 Z m 3.73 5.84 c -0.46 -0.92 -0.95 -1.82 -1.5 -2.68 a 3 3 0 0 0 1.57 -1.99 a 3 3 0 0 1 -0.07 4.67 Z m 1.8 4.53 c -0.29 -0.9 -0.6 -1.8 -0.97 -2.67 c 0.44 -0.28 0.84 -0.63 1.17 -1.03 a 2 2 0 0 1 -0.2 3.7 Z m 1.14 5.51 c -0.14 -1.21 -0.35 -2.4 -0.62 -3.57 c 0.45 -0.14 0.86 -0.35 1.23 -0.63 a 2.99 2.99 0 0 1 -0.6 4.2 Z M 275 214 a 29 29 0 0 0 -57.97 0 h 57.96 Z M 72.33 198.12 c -0.21 -0.32 -0.34 -0.7 -0.34 -1.12 v -12 h -2 v 12 a 4.01 4.01 0 0 0 7.09 2.54 c 0.57 -0.69 0.91 -1.57 0.91 -2.54 v -12 h -2 v 12 a 1.99 1.99 0 0 1 -2 2 a 2 2 0 0 1 -1.66 -0.88 Z M 75 176 c 0.38 0 0.74 -0.04 1.1 -0.12 a 4 4 0 0 0 6.19 2.4 A 13.94 13.94 0 0 1 84 185 v 24 a 6 6 0 0 1 -6 6 h -3 v 9 a 5 5 0 1 1 -10 0 v -9 h -3 a 6 6 0 0 1 -6 -6 v -24 a 14 14 0 0 1 14 -14 a 5 5 0 0 0 5 5 Z m -17 15 v 12 a 1.99 1.99 0 0 0 1.22 1.84 a 2 2 0 0 0 2.44 -0.72 c 0.21 -0.32 0.34 -0.7 0.34 -1.12 v -12 h 2 v 12 a 3.98 3.98 0 0 1 -5.35 3.77 a 3.98 3.98 0 0 1 -0.65 -0.3 V 209 a 4 4 0 0 0 4 4 h 16 a 4 4 0 0 0 4 -4 v -24 c 0.01 -1.53 -0.23 -2.88 -0.72 -4.17 c -0.43 0.1 -0.87 0.16 -1.28 0.17 a 6 6 0 0 1 -5.2 -3 a 7 7 0 0 1 -6.47 -4.88 A 12 12 0 0 0 58 185 v 6 Z m 9 24 v 9 a 3 3 0 1 0 6 0 v -9 h -6 Z" /><path d="M -17 191 a 1 1 0 0 0 0 2 h 2 a 1 1 0 0 0 0 -2 h -2 Z m 19 9 a 1 1 0 0 1 1 -1 h 2 a 1 1 0 0 1 0 2 H 3 a 1 1 0 0 1 -1 -1 Z m -14 5 a 1 1 0 0 0 0 2 h 2 a 1 1 0 0 0 0 -2 h -2 Z m -25 1 a 1 1 0 0 0 0 2 h 2 a 1 1 0 0 0 0 -2 h -2 Z m 5 4 a 1 1 0 0 0 0 2 h 2 a 1 1 0 0 0 0 -2 h -2 Z m 9 0 a 1 1 0 0 1 1 -1 h 2 a 1 1 0 0 1 0 2 h -2 a 1 1 0 0 1 -1 -1 Z m 15 1 a 1 1 0 0 1 1 -1 h 2 a 1 1 0 0 1 0 2 h -2 a 1 1 0 0 1 -1 -1 Z m 12 -2 a 1 1 0 0 0 0 2 h 2 a 1 1 0 0 0 0 -2 H 4 Z m -11 -14 a 1 1 0 0 1 1 -1 h 2 a 1 1 0 0 1 0 2 h -2 a 1 1 0 0 1 -1 -1 Z m -19 0 a 1 1 0 0 0 0 2 h 2 a 1 1 0 0 0 0 -2 h -2 Z m 6 5 a 1 1 0 0 1 1 -1 h 2 a 1 1 0 0 1 0 2 h -2 a 1 1 0 0 1 -1 -1 Z m -25 15 c 0 -0.47 0.01 -0.94 0.03 -1.4 a 5 5 0 0 1 -1.7 -8 a 3.99 3.99 0 0 1 1.88 -5.18 a 5 5 0 0 1 3.4 -6.22 a 3 3 0 0 1 1.46 -1.05 a 5 5 0 0 1 7.76 -3.27 A 30.86 30.86 0 0 1 -14 184 c 6.79 0 13.06 2.18 18.17 5.88 a 5 5 0 0 1 7.76 3.27 a 3 3 0 0 1 1.47 1.05 a 5 5 0 0 1 3.4 6.22 a 4 4 0 0 1 1.87 5.18 a 4.98 4.98 0 0 1 -1.7 8 c 0.02 0.46 0.03 0.93 0.03 1.4 v 1 h -62 v -1 Z m 0.83 -7.17 a 30.9 30.9 0 0 0 -0.62 3.57 a 3 3 0 0 1 -0.61 -4.2 c 0.37 0.28 0.78 0.49 1.23 0.63 Z m 1.49 -4.61 c -0.36 0.87 -0.68 1.76 -0.96 2.68 a 2 2 0 0 1 -0.21 -3.71 c 0.33 0.4 0.73 0.75 1.17 1.03 Z m 2.32 -4.54 c -0.54 0.86 -1.03 1.76 -1.49 2.68 a 3 3 0 0 1 -0.07 -4.67 a 3 3 0 0 0 1.56 1.99 Z m 1.14 -1.7 c 0.35 -0.5 0.72 -0.98 1.1 -1.46 a 1 1 0 1 0 -1.1 1.45 Z m 5.34 -5.77 c -1.03 0.86 -2 1.79 -2.9 2.77 a 3 3 0 0 0 -1.11 -0.77 a 3 3 0 0 1 4 -2 Z m 42.66 2.77 c -0.9 -0.98 -1.87 -1.9 -2.9 -2.77 a 3 3 0 0 1 4.01 2 a 3 3 0 0 0 -1.1 0.77 Z m 1.34 1.54 c 0.38 0.48 0.75 0.96 1.1 1.45 a 1 1 0 1 0 -1.1 -1.45 Z m 3.73 5.84 c -0.46 -0.92 -0.95 -1.82 -1.5 -2.68 a 3 3 0 0 0 1.57 -1.99 a 3 3 0 0 1 -0.07 4.67 Z m 1.8 4.53 c -0.29 -0.9 -0.6 -1.8 -0.97 -2.67 c 0.44 -0.28 0.84 -0.63 1.17 -1.03 a 2 2 0 0 1 -0.2 3.7 Z m 1.14 5.51 c -0.14 -1.21 -0.35 -2.4 -0.62 -3.57 c 0.45 -0.14 0.86 -0.35 1.23 -0.63 a 2.99 2.99 0 0 1 -0.6 4.2 Z M 15 214 a 29 29 0 0 0 -57.97 0 h 57.96 Z" /></g></g></svg>