<svg xmlns="http://www.w3.org/2000/svg" fill="#000000" width="800px" height="800px" viewBox="0 0 32 32" version="1.1">
    <path d="M30.1 1.5c-1.0-1.0-2.2-1.5-3.5-1.5-2.0 0-3.4 1.2-3.8 1.6-0.5 0.5-19.7 19.7-19.7 19.7-0.1 0.1-0.2 0.2-0.2 0.4-0.4 1.6-2.6 8.7-2.6 8.7-0.1 0.3-0.0 0.7 0.2 1.0 0.1 0.1 0.4 0.2 0.7 0.2 0.1 0 0.2-0.0 0.3-0.0 0.0-0.0 7.4-2.3 8.6-2.7 0.1-0.0 0.3-0.1 0.4-0.2 0.7-0.7 18.6-18.4 19.8-19.7 1.2-1.2 1.8-2.5 1.8-3.9-0.0-1.3-0.6-2.5-1.9-3.7zM22.3 4.8c0.5 0.1 1.7 0.5 2.9 1.7 1.2 1.2 1.5 2.6 1.6 3.0-3.9 3.9-12.9 12.8-16.5 16.3-0.3-0.7-0.8-1.6-1.7-2.5-1.0-1.0-2.1-1.6-2.9-1.9 3.5-3.5 12.7-12.7 16.6-16.6zM4.3 23.1c0.5 0.1 1.6 0.5 2.8 1.7 0.8 0.9 1.3 1.9 1.5 2.5-1.3 0.4-4.4 1.4-6.3 2.1 0.5-1.8 1.5-4.8 2.0-6.3zM28.7 7.8c-0.0 0.0-0.1 0.1-0.1 0.1-0.3-0.8-0.8-1.8-1.8-2.8-0.9-0.9-1.9-1.5-2.7-1.9 0.0-0.0 0.1-0.1 0.1-0.1 0.1-0.1 1.1-1.1 2.4-1.1 0.7 0 1.4 0.3 2.1 1.0 0.8 0.7 1.2 1.5 1.2 2.3 0.0 0.7-0.4 1.5-1.2 2.4z"/>
</svg>